HIERARCHY
ROOT SpineBase
{
  OFFSET 0.000000 0.000000 0.000000
  CHANNELS 6 Xposition Yposition Zposition Zrotation Xrotation Yrotation
  JOINT SpineMid
  {
    OFFSET 0.000000 31.404378 0.000000
    CHANNELS 3 Zrotation Xrotation Yrotation
    JOINT SpineShoulder
    {
      OFFSET -0.162588 23.286454 -0.678085
      CHANNELS 3 Zrotation Xrotation Yrotation
      JOINT Neck
      {
        OFFSET -0.056453 7.693962 -0.472144
        CHANNELS 3 Zrotation Xrotation Yrotation
        JOINT Head
        {
          OFFSET -4.577178 12.987813 0.126389
          CHANNELS 3 Zrotation Xrotation Yrotation
          End Site
          {
            OFFSET 0 0 0
          }
        }
      }
      JOINT ShoulderLeft
      {
        OFFSET -17.176657 -5.889736 7.641165
        CHANNELS 3 Zrotation Xrotation Yrotation
        JOINT ElbowLeft
        {
          OFFSET -3.344669 -28.921635 1.553862
          CHANNELS 3 Zrotation Xrotation Yrotation
          JOINT WristLeft
          {
            OFFSET -1.487241 -20.270622 -3.772794
            CHANNELS 3 Zrotation Xrotation Yrotation
            JOINT HandLeft
            {
              OFFSET -2.939468 -7.624177 -2.222495
              CHANNELS 3 Zrotation Xrotation Yrotation
              JOINT HandTipLeft
              {
                OFFSET 0.148228 -7.603411 -0.277146
                CHANNELS 3 Zrotation Xrotation Yrotation
                End Site
                {
                  OFFSET 0 0 0
                }
              }
              JOINT ThumbLeft
              {
                OFFSET 2.645134 -1.745220 0.064126
                CHANNELS 3 Zrotation Xrotation Yrotation
                End Site
                {
                  OFFSET 0 0 0
                }
              }
            }
          }
        }
      }
      JOINT ShoulderRight
      {
        OFFSET 13.631372 -3.849877 -7.496118
        CHANNELS 3 Zrotation Xrotation Yrotation
        JOINT ElbowRight
        {
          OFFSET 9.497344 -27.153402 -1.847206
          CHANNELS 3 Zrotation Xrotation Yrotation
          JOINT WristRight
          {
            OFFSET 1.459579 -21.063244 -7.207932
            CHANNELS 3 Zrotation Xrotation Yrotation
            JOINT HandRight
            {
              OFFSET -1.591221 -6.324795 -1.150490
              CHANNELS 3 Zrotation Xrotation Yrotation
              JOINT HandTipRight
              {
                OFFSET -0.568668 -7.612171 -0.694913
                CHANNELS 3 Zrotation Xrotation Yrotation
                End Site
                {
                  OFFSET 0 0 0
                }
              }
              JOINT ThumbRight
              {
                OFFSET -2.988535 -0.935369 -1.725207
                CHANNELS 3 Zrotation Xrotation Yrotation
                End Site
                {
                  OFFSET 0 0 0
                }
              }
            }
          }
        }
      }
    }
  }
  JOINT HipLeft
  {
    OFFSET -6.015926 0.055362 -0.629698
    CHANNELS 3 Zrotation Xrotation Yrotation
    JOINT KneeLeft
    {
      OFFSET 1.154017 -35.537083 4.685165
      CHANNELS 3 Zrotation Xrotation Yrotation
      JOINT AnkleLeft
      {
        OFFSET 12.802183 -38.142158 9.243103
        CHANNELS 3 Zrotation Xrotation Yrotation
        JOINT FootLeft
        {
          OFFSET -1.712824 -7.887436 -6.244737
          CHANNELS 3 Zrotation Xrotation Yrotation
          End Site
          {
            OFFSET 0 0 0
          }
        }
      }
    }
  }
  JOINT HipRight
  {
    OFFSET 6.676524 1.281173 -5.774373
    CHANNELS 3 Zrotation Xrotation Yrotation
    JOINT KneeRight
    {
      OFFSET 5.823383 -36.177697 -9.249798
      CHANNELS 3 Zrotation Xrotation Yrotation
      JOINT AnkleRight
      {
        OFFSET 7.252579 -36.360448 9.422585
        CHANNELS 3 Zrotation Xrotation Yrotation
        JOINT FootRight
        {
          OFFSET -4.289763 -4.078118 -12.248782
          CHANNELS 3 Zrotation Xrotation Yrotation
          End Site
          {
            OFFSET 0 0 0
          }
        }
      }
    }
  }
}
MOTION
Frames: 5
Frame Time: 0.033333
-34.525003 82.324370 340.892683 -0.000000 0.000000 22.064361 0.000000 0.000000 -22.064361 -0.000000 0.000000 0.000000 -0.000000 0.000000 0.000000 0.000000 0.000000 0.000000 -0.000000 0.000000 0.000000 -0.000000 0.000000 0.000000 -0.000000 0.000000 0.000000 -0.000000 0.000000 0.000000 0.000000 0.000000 0.000000 0.000000 0.000000 0.000000 -0.000000 0.000000 0.000000 -0.000000 0.000000 0.000000 -0.000000 0.000000 0.000000 -0.000000 0.000000 0.000000 0.000000 0.000000 0.000000 0.000000 0.000000 0.000000 0.000000 0.000000 -22.064361 -0.000000 0.000000 0.000000 -0.000000 0.000000 0.000000 0.000000 0.000000 0.000000 0.000000 0.000000 -22.064361 -0.000000 0.000000 0.000000 -0.000000 0.000000 0.000000 0.000000 0.000000 0.000000
-34.473353 82.358421 340.763098 0.080133 0.207781 21.927794 -0.151930 -0.162824 -21.928155 -0.000000 0.000000 0.000000 -0.000000 0.000000 0.000000 0.000000 0.000000 0.000000 -0.000000 0.000000 0.000000 -0.000000 0.000000 0.000000 4.618778 -2.278746 -0.384757 -5.254706 3.400737 0.642536 0.000000 0.000000 0.000000 0.000000 0.000000 0.000000 -0.000000 0.000000 0.000000 -0.000000 0.000000 0.000000 2.432147 -4.558153 0.811899 -2.374999 4.588143 -0.619932 0.000000 0.000000 0.000000 0.000000 0.000000 0.000000 -0.151930 -0.162824 -21.928155 -0.000000 0.000000 0.000000 -0.639987 -0.072152 0.521593 0.000000 0.000000 0.000000 -0.151930 -0.162824 -21.928155 -0.000000 0.000000 0.000000 -0.000000 0.000000 0.000000 0.000000 0.000000 0.000000
-34.442770 82.383301 340.664618 0.141689 0.370739 21.813128 -0.269307 -0.291544 -21.814272 -0.000000 0.000000 0.000000 -0.000000 0.000000 0.000000 0.000000 0.000000 0.000000 -0.000000 0.000000 0.000000 0.839024 -0.312846 -0.131056 8.348941 -4.352001 -0.438539 -10.251660 6.589449 1.438148 0.000000 0.000000 0.000000 0.000000 0.000000 0.000000 -0.000000 0.000000 0.000000 0.423494 -0.828587 -0.199721 4.215833 -7.489860 1.773096 -3.537679 8.860605 -1.217138 0.000000 0.000000 0.000000 0.000000 0.000000 0.000000 -0.269307 -0.291544 -21.814272 -0.000000 0.000000 0.000000 -1.158677 -0.289375 0.977092 0.000000 0.000000 0.000000 -0.269307 -0.291544 -21.814272 -0.000000 0.000000 0.000000 -0.000000 0.000000 0.000000 0.000000 0.000000 0.000000
-34.433255 82.399011 340.597241 0.184601 0.488705 21.720393 -0.352360 -0.385686 -21.722366 -0.000000 0.000000 0.000000 -0.000000 0.000000 0.000000 0.000000 0.000000 0.000000 -0.000000 0.000000 0.000000 1.319318 -0.468489 -0.206128 12.222730 -6.607817 -0.296176 -14.811857 9.496580 2.313286 0.000000 0.000000 0.000000 0.000000 0.000000 0.000000 -0.000000 0.000000 0.000000 0.634115 -1.233724 -0.296644 5.923370 -10.044631 2.558489 -4.755250 11.853123 -1.562220 0.000000 0.000000 0.000000 0.000000 0.000000 0.000000 -0.352360 -0.385686 -21.722366 -0.000000 0.000000 0.000000 -1.555356 -0.650642 1.366013 0.000000 0.000000 0.000000 -0.352360 -0.385686 -21.722366 -0.000000 0.000000 0.000000 -0.000000 0.000000 0.000000 0.000000 0.000000 0.000000
-34.444808 82.405550 340.560969 0.208823 0.561565 21.649628 -0.401281 -0.444903 -21.652210 -0.000000 0.000000 0.000000 -0.000000 0.000000 0.000000 0.000000 0.000000 0.000000 -0.000000 0.000000 0.000000 1.852378 -0.629897 -0.289036 15.676993 -8.783619 0.082346 -18.749434 12.067303 3.173753 0.000000 0.000000 0.000000 0.000000 0.000000 0.000000 -0.000000 0.000000 0.000000 0.844284 -1.633265 -0.391783 7.318318 -11.827320 3.197466 -5.633273 13.862387 -1.790228 0.000000 0.000000 0.000000 0.000000 0.000000 0.000000 -0.401281 -0.444903 -21.652210 -0.000000 0.000000 0.000000 -1.829252 -1.156066 1.688514 0.000000 0.000000 0.000000 -0.401281 -0.444903 -21.652210 -0.000000 0.000000 0.000000 -0.000000 0.000000 0.000000 0.000000 0.000000 0.000000
